<svg width="37" height="32" viewBox="0 0 37 32" fill="none" xmlns="http://www.w3.org/2000/svg">
<g id="Group 69">
<path id="Union" fill-rule="evenodd" clip-rule="evenodd" d="M32.5083 26.127C35.1488 23.3652 36.7363 19.8173 36.7363 15.9476C36.7363 7.13997 28.5126 0 18.3682 0C8.22371 0 0 7.13997 0 15.9476C0 24.7552 8.22371 31.8951 18.3682 31.8951C21.0376 31.8951 23.574 31.4007 25.8625 30.5117C28.0337 31.9418 33.7395 32.7389 33.0941 31.0408C32.6916 29.9818 32.4273 27.5938 32.5083 26.127Z" fill="white"/>
<path id="Union_2" d="M18.3636 26L26.5563 17.6436C29.1759 14.9717 29.4655 10.9351 27.2031 8.62755C24.9408 6.32 20.6026 6.19451 18.3636 10.0301C16.334 6.19451 11.7865 6.32 9.52414 8.62755C7.26178 10.9351 7.55136 14.9717 10.1709 17.6436L18.3636 26Z" fill="#E353B2"/>
</g>
</svg>
