<svg width="112" height="32" viewBox="0 0 112 32" fill="none" xmlns="http://www.w3.org/2000/svg">
<path fill-rule="evenodd" clip-rule="evenodd" d="M2.69878 14.2407C3.33181 14.6226 3.97938 14.9153 4.57994 15.0621C5.20952 15.216 5.94819 15.2464 6.52264 14.8348C7.32099 14.2627 7.67038 13.5894 7.79106 12.8614C7.84744 12.5213 7.85191 12.1832 7.84589 11.8729C7.8433 11.7397 7.8391 11.6169 7.83504 11.4981L7.83504 11.4979L7.83501 11.4973C7.8289 11.3187 7.82312 11.1492 7.82312 10.961C7.82312 10.5665 7.50414 10.2457 7.10955 10.2457C6.71496 10.2457 6.39599 10.5665 6.39599 10.961C6.39599 11.1662 6.40318 11.383 6.40969 11.5793V11.5794L6.40974 11.5806C6.41357 11.6963 6.41716 11.8045 6.41903 11.9008C6.42455 12.1849 6.41781 12.4183 6.38324 12.6268C6.32203 12.9961 6.17051 13.3286 5.69272 13.6709C5.62869 13.7168 5.40986 13.7924 4.91802 13.6722C4.45506 13.5591 3.88356 13.3017 3.27588 12.9167C2.05585 12.1437 0.83275 10.9481 0.174606 9.71018L0.17571 9.71206L0.175257 9.70977C0.171479 9.69405 0.147782 9.59542 0.198992 9.35276C0.255489 9.08506 0.383288 8.73759 0.58552 8.32407C0.988157 7.50078 1.63343 6.52102 2.37572 5.57346C3.11672 4.62757 3.93246 3.74175 4.66104 3.10018C5.02623 2.7786 5.35477 2.5315 5.62935 2.36888C5.92509 2.19374 6.07576 2.1665 6.10768 2.1665C6.21198 2.1665 6.38227 2.22089 6.62229 2.45656C6.85941 2.68938 7.09842 3.03668 7.32447 3.4585C7.77495 4.29911 8.09908 5.29284 8.24244 5.83937C8.34258 6.22112 8.73265 6.44993 9.11427 6.34918C9.49569 6.24849 9.72274 5.85709 9.62265 5.47554C9.57575 5.29676 9.51189 5.07547 9.43197 4.82751C11.3766 3.74385 13.6167 3.12644 16.0009 3.12644C18.425 3.12644 20.7001 3.76467 22.6672 4.88225C22.5395 5.25101 22.442 5.58027 22.377 5.82794C22.2769 6.20949 22.504 6.60089 22.8854 6.70159C23.267 6.80233 23.6571 6.57352 23.7572 6.19178C23.9006 5.64524 24.2247 4.65151 24.6752 3.8109C24.9012 3.38908 25.1403 3.04178 25.3774 2.80896C25.6174 2.57329 25.7877 2.51891 25.892 2.51891C25.9239 2.51891 26.0746 2.54614 26.3703 2.72128C26.6449 2.8839 26.9734 3.13101 27.3386 3.45258C28.0672 4.09415 28.8829 4.97997 29.6239 5.92587C30.3662 6.87342 31.0115 7.85318 31.4141 8.67647C31.6164 9.08999 31.7442 9.43747 31.8007 9.70516C31.8519 9.94782 31.8282 10.0464 31.8244 10.0622L31.824 10.0645L31.8251 10.0626C31.1669 11.3005 29.9438 12.4961 28.7238 13.2691C28.1161 13.6541 27.5446 13.9115 27.0816 14.0246C26.5898 14.1448 26.371 14.0692 26.3069 14.0233C25.8292 13.681 25.6776 13.3485 25.6164 12.9792C25.5819 12.7707 25.5751 12.5373 25.5806 12.2532C25.5825 12.1569 25.5861 12.0487 25.5899 11.933L25.59 11.9318V11.9317V11.9317C25.5965 11.7354 25.6037 11.5186 25.6037 11.3134C25.6037 10.9189 25.2847 10.5981 24.8901 10.5981C24.4955 10.5981 24.1765 10.9189 24.1765 11.3134C24.1765 11.5016 24.1708 11.6711 24.1647 11.8497L24.1646 11.8503C24.1606 11.9692 24.1564 12.092 24.1538 12.2253C24.1478 12.5356 24.1522 12.8737 24.2086 13.2138C24.3293 13.9418 24.6787 14.6151 25.477 15.1872C26.0515 15.5988 26.7901 15.5684 27.4197 15.4145C28.0378 15.2634 28.7057 14.9578 29.3563 14.5594C29.4612 15.238 29.5156 15.9332 29.5156 16.6412C29.5156 24.1051 23.4649 30.1559 16.0009 30.1559C8.53697 30.1559 2.48622 24.1051 2.48622 16.6412C2.48622 15.8219 2.55912 15.0197 2.69878 14.2407Z" fill="#F357A1"/>
<path fill-rule="evenodd" clip-rule="evenodd" d="M23.345 22.7164C23.345 25 20.0372 25 15.9569 25C11.8766 25 8.56885 25 8.56885 22.7164C8.56885 19.007 11.8766 16 15.9569 16C20.0372 16 23.345 19.007 23.345 22.7164ZM14.98 21.0315C14.98 22.2288 14.1858 23.1994 13.2062 23.1994C12.2266 23.1994 11.4325 22.2288 11.4325 21.0315C11.4325 19.8342 12.2266 18.8636 13.2062 18.8636C14.1858 18.8636 14.98 19.8342 14.98 21.0315ZM18.5243 23.1994C19.5039 23.1994 20.2981 22.2288 20.2981 21.0315C20.2981 19.8342 19.5039 18.8636 18.5243 18.8636C17.5447 18.8636 16.7506 19.8342 16.7506 21.0315C16.7506 22.2288 17.5447 23.1994 18.5243 23.1994Z" fill="white" fill-opacity="0.7"/>
<path d="M47.6081 21.488V21.44C46.7921 21.44 45.9761 21.176 45.9761 19.688V11.96H47.2001V11H45.9761V8.45596H45.9281C44.7281 9.46396 42.6161 10.52 40.1201 11V11.96H40.7201L40.6961 19.472C40.6961 22.28 42.2561 23.24 43.9361 23.24C46.1441 23.24 47.2001 22.184 47.6081 21.488Z" fill="white"/>
<path d="M58.7499 17.6H58.8699L60.1659 11C59.3739 11 58.8459 10.76 57.9819 10.76C56.6859 10.76 55.4859 11.552 54.9099 13.424V10.76L49.1979 11.24V11.336L49.6539 13.016L49.6299 20.768L49.0779 22.976V23H55.4619V22.976L54.9099 20.768V15.992C54.8859 13.928 55.8219 12.344 56.6859 12.344L58.7499 17.6Z" fill="white"/>
<path d="M61.2622 10.976V11L61.8142 13.232V19.064C61.8142 22.064 63.0622 23.216 64.7902 23.216C66.8302 23.216 67.7422 22.232 68.1502 21.368L68.6542 22.976L73.7902 23V22.976L73.2382 20.744V13.232L73.7902 11V10.976H67.9582V19.424C67.9342 20.528 67.7422 20.624 67.5982 20.624C67.4062 20.624 67.0942 20.528 67.0942 18.32V10.976H61.2622Z" fill="white"/>
<path d="M81.9975 23V22.976L81.4455 20.768V11.96H82.6935V11H81.1575C78.9255 9.31996 77.8935 6.63196 78.7335 6.63196C79.5735 6.63196 80.8935 9.22396 81.9735 10.28L82.0215 10.256L82.2375 6.19996C80.8935 6.19996 79.7895 5.95996 78.6855 5.95996C76.9335 5.95996 75.1335 6.72796 75.1335 8.45596C75.1335 9.87196 76.0935 10.616 77.2215 11H75.1335V11.96H76.1655V20.768L75.6135 22.976V23H81.9975Z" fill="white"/>
<path d="M90.7856 23V22.976L90.2336 20.768V11.96H91.4816V11H89.9456C87.7136 9.31996 86.6816 6.63196 87.5216 6.63196C88.3616 6.63196 89.6816 9.22396 90.7616 10.28L90.8096 10.256L91.0256 6.19996C89.6816 6.19996 88.5776 5.95996 87.4736 5.95996C85.7216 5.95996 83.9216 6.72796 83.9216 8.45596C83.9216 9.87196 84.8816 10.616 86.0096 11H83.9216V11.96H84.9536V20.768L84.4016 22.976V23H90.7856Z" fill="white"/>
<path d="M99.2137 23V22.976L98.6617 20.768V5.95996L92.9497 6.41596V6.51196L93.4057 8.21596L93.3817 20.768L92.8297 22.976V23H99.2137Z" fill="white"/>
<path d="M106.704 10.76C102.36 10.76 100.776 12.68 100.776 17.048C100.776 21.392 102.504 23.24 107.256 23.24C108.816 23.24 109.632 23.072 111.144 23.072L111.24 18.416H111.144C110.04 20.528 108.12 22.448 107.256 22.448C106.344 22.448 106.08 21.464 106.056 17.336H111.456V16.52C111.456 12.632 110.688 10.76 106.704 10.76ZM106.056 16.28C106.08 12.128 106.272 11.552 106.704 11.552C107.232 11.552 107.136 14.456 107.112 16.28H106.056Z" fill="white"/>
</svg>
